# xmcd
#
# Track frame offsets: 
#        150
#        12350
#        25460
#        38228
#        50683
#        63764
#        77526
#        89913
#        102319
#        115241
#        128631
#        142198
#        155002
#        169159
#        183070
#        194799
#        208811
#        222882
#        237323
#        252368
#        267992
#        280028
#        293771
#        308304
#        323212
#
# Disc length: 4501 seconds
#
# Revision: 2
# Processed by: cddbd v1.5.2PL0 Copyright (c) Steve Scherf et al.
# Submitted via: ExactAudioCopy v0.99pb5
#
DISCID=74119319
DTITLE=Blind Lemon Jefferson - The Complete Recordings [disc 4]
DYEAR=2008
DGENRE=Blues
TTITLE0=Eagle Eyed Mama
TTITLE1=Dynamite Blues
TTITLE2=Disgusted Blues
TTITLE3=Competition Bed Blues
TTITLE4=Sad News Blues - Peach Orchard Mama (Untraced Master)
TTITLE5=Oil Well Blues
TTITLE6=Tin Cup Blues
TTITLE7=Big Night Blues
TTITLE8=Empty House Blues
TTITLE9=Saturday Night Spender Blues
TTITLE10=That Black Snake Moan No. 2
TTITLE11=Peach Orchard Mama
TTITLE12=Big Night Blues
TTITLE13=Bed Spring Blues
TTITLE14=Yo Yo Blues
TTITLE15=Mosquito Moan
TTITLE16=Southern Woman Blues
TTITLE17=Bakershop Blues
TTITLE18=Pneumonia Blues
TTITLE19=Long Distance Moan
TTITLE20=That Crawlin' Baby Blues
TTITLE21=Fence Breakin' Yellin' Blues
TTITLE22=Cat Man Blues
TTITLE23=The Cheaters Spell
TTITLE24=Bootin' Me 'Bout
EXTD=Powerd by gracenote music web API
EXTT0=
EXTT1=
EXTT2=
EXTT3=
EXTT4=
EXTT5=
EXTT6=
EXTT7=
EXTT8=
EXTT9=
EXTT10=
EXTT11=
EXTT12=
EXTT13=
EXTT14=
EXTT15=
EXTT16=
EXTT17=
EXTT18=
EXTT19=
EXTT20=
EXTT21=
EXTT22=
EXTT23=
EXTT24=
PLAYORDER=
